<?xml version="1.0" standalone="no"?>
<!DOCTYPE svg PUBLIC "-//W3C//DTD SVG 20010904//EN"
 "http://www.w3.org/TR/2001/REC-SVG-20010904/DTD/svg10.dtd">
<svg version="1.0" xmlns="http://www.w3.org/2000/svg"
 width="173.000000pt" height="146.000000pt" viewBox="0 0 173.000000 146.000000"
 preserveAspectRatio="xMidYMid meet">

<g transform="translate(0.000000,146.000000) scale(0.100000,-0.100000)"
fill="#000000" stroke="none">
<path d="M720 1428 c-19 -5 -49 -23 -67 -40 l-32 -31 -39 26 c-51 36 -80 35
-88 0 -11 -54 -11 -54 -53 -47 -35 6 -41 3 -56 -20 -12 -18 -15 -36 -11 -61 7
-34 6 -35 -26 -35 -84 0 -103 -30 -74 -113 17 -46 17 -49 0 -61 -13 -10 -16
-22 -11 -49 5 -30 2 -38 -19 -52 -28 -18 -31 -46 -7 -86 15 -25 15 -30 1 -46
-28 -33 -28 -41 -2 -73 25 -29 25 -32 10 -49 -23 -25 -20 -50 9 -63 29 -13 33
-43 8 -52 -14 -6 -63 2 -130 20 -6 1 -15 28 -18 58 -4 31 -11 56 -16 56 -15 0
-58 -73 -79 -133 -34 -97 -20 -202 34 -246 12 -10 16 -32 16 -81 0 -62 2 -71
26 -89 36 -28 54 -27 125 10 55 27 64 29 96 18 19 -6 61 -9 92 -7 50 5 61 2
99 -24 230 -158 517 -166 748 -22 79 48 117 55 134 24 13 -24 40 -25 82 -4 24
12 36 14 55 5 71 -32 124 5 121 85 -2 43 3 55 34 96 44 57 55 112 39 189 -13
58 -68 170 -88 176 -7 3 -14 -17 -18 -54 -10 -78 -29 -125 -49 -117 -23 9 -21
89 3 120 17 21 18 38 14 181 -3 87 -10 163 -15 170 -8 10 -105 43 -229 79 -12
3 -18 21 -21 68 -10 118 -70 186 -165 186 -62 0 -229 43 -253 65 -11 10 -39
19 -64 20 -25 2 -53 5 -63 8 -10 3 -34 1 -53 -5z m112 -68 c33 -34 46 -34 28
0 -16 30 -8 34 21 12 27 -21 225 -72 280 -72 19 0 45 -7 58 -16 32 -23 61 -90
61 -144 l0 -45 -103 -28 c-125 -34 -144 -34 -249 0 -68 22 -103 26 -195 27
-62 1 -108 -3 -104 -7 4 -4 44 -14 87 -22 44 -8 115 -29 159 -47 73 -30 89
-33 185 -33 58 0 120 4 139 9 33 8 34 8 27 -20 -11 -45 -55 -83 -115 -101 -76
-22 -211 -14 -268 15 -34 18 -43 19 -43 8 0 -8 9 -18 20 -21 28 -9 25 -23 -6
-31 -66 -17 -178 25 -223 83 -27 33 -37 24 -17 -15 31 -59 99 -102 197 -123
38 -8 49 -15 45 -26 -3 -8 -6 -23 -6 -34 0 -10 -16 -36 -35 -58 -19 -21 -35
-41 -35 -45 0 -11 34 10 64 40 27 28 28 28 42 9 25 -36 64 -75 74 -75 21 0 9
27 -26 58 -20 18 -34 35 -31 38 3 3 24 0 47 -7 42 -13 60 -31 92 -89 10 -17
22 -28 28 -25 7 4 7 13 0 26 -6 10 -7 19 -2 19 10 0 62 -53 62 -63 0 -4 -161
-7 -358 -7 l-359 0 -11 25 c-43 95 -59 283 -33 395 34 144 125 266 242 324 39
20 86 49 105 66 49 43 113 43 156 0z m-271 -6 c11 -14 10 -18 -6 -30 -28 -21
-35 -17 -35 16 0 33 19 40 41 14z m-91 -64 c8 -5 12 -10 10 -12 -3 -2 -20 -16
-38 -32 l-32 -30 0 42 c0 37 3 42 23 42 12 0 29 -4 37 -10z m-90 -115 c0 -3
-12 -24 -27 -47 l-28 -41 -17 39 c-9 21 -14 42 -12 46 6 9 84 11 84 3z m1050
-143 l115 -38 6 -154 c5 -134 4 -158 -10 -174 -30 -35 -151 -114 -185 -120
-32 -6 -126 23 -313 99 l-43 17 0 74 c0 75 6 86 39 65 18 -12 41 -3 41 15 0 8
7 14 15 14 8 0 12 -6 9 -14 -8 -21 14 -56 34 -56 42 0 56 49 21 73 -20 14 -19
15 23 38 49 28 88 88 88 138 0 29 21 61 40 60 3 0 57 -17 120 -37z m-530 20
c0 -13 -12 -22 -22 -16 -10 6 -1 24 13 24 5 0 9 -4 9 -8z m297 -27 c-4 -8 -11
-15 -17 -15 -14 0 -13 27 3 33 16 6 21 1 14 -18z m-893 -19 c-3 -9 -10 -13
-16 -10 -5 3 -4 12 3 20 15 18 22 13 13 -10z m666 16 c0 -13 -12 -22 -22 -16
-10 6 -1 24 13 24 5 0 9 -4 9 -8z m170 -6 c0 -8 -4 -17 -9 -21 -12 -7 -24 12
-16 25 9 15 25 12 25 -4z m-100 0 c0 -2 -7 -9 -15 -16 -12 -10 -15 -10 -15 4
0 9 7 16 15 16 8 0 15 -2 15 -4z m35 -16 c3 -5 1 -10 -4 -10 -6 0 -11 5 -11
10 0 6 2 10 4 10 3 0 8 -4 11 -10z m-795 -107 c0 -37 0 -37 -16 -15 -12 18
-13 26 -4 37 18 22 20 19 20 -22z m0 -120 c0 -25 -1 -26 -16 -11 -9 9 -13 21
-10 27 13 20 26 11 26 -16z m18 -123 c-2 -5 -9 -6 -17 -1 -9 6 -11 16 -7 27 7
18 8 18 17 1 6 -10 9 -22 7 -27z m-217 -89 c-6 -11 -11 -59 -11 -108 0 -86 0
-87 -18 -63 -26 38 -23 142 8 205 l24 50 4 -32 c2 -18 -2 -41 -7 -52z m1593
21 c27 -82 30 -124 11 -168 l-18 -39 -7 30 c-8 37 -24 68 -44 84 -13 11 -12
17 5 54 10 23 19 55 19 70 0 39 16 25 34 -31z m-1344 -24 c0 -5 -7 -8 -15 -8
-15 0 -20 21 -8 33 7 7 23 -11 23 -25z m-115 -57 c60 -28 87 -62 92 -118 3
-36 -1 -56 -16 -80 -19 -31 -112 -93 -138 -93 -10 0 -13 38 -13 155 0 175 -2
171 75 136z m1348 -51 c35 -39 38 -113 6 -154 -22 -28 -114 -86 -136 -86 -10
0 -13 36 -13 148 0 82 3 151 6 155 12 12 109 -33 137 -63z m-1163 -80 l0 -130
-30 0 -30 0 0 130 0 130 30 0 30 0 0 -130z m188 82 c3 -41 2 -42 -23 -36 -49
12 -88 -55 -50 -86 8 -7 28 -10 45 -8 29 4 30 4 30 -39 0 -43 0 -43 -36 -43
-96 0 -154 103 -109 191 21 39 72 70 110 67 28 -3 30 -6 33 -46z m200 6 l3
-38 -40 0 c-23 0 -41 -4 -41 -10 0 -5 14 -10 30 -10 27 0 30 -3 30 -30 0 -27
-3 -30 -30 -30 -16 0 -30 -4 -30 -10 0 -5 18 -10 40 -10 l40 0 0 -40 0 -40
-69 0 c-39 0 -72 4 -75 8 -3 5 -2 64 1 131 l6 122 66 -3 66 -3 3 -37z m122
-48 l0 -90 40 0 40 0 0 -40 0 -40 -70 0 -70 0 0 130 0 130 30 0 30 0 0 -90z
m269 -26 c22 -64 41 -122 41 -130 0 -19 -59 -18 -66 1 -8 20 -60 20 -68 0 -3
-9 -19 -15 -41 -15 l-35 0 34 93 c51 140 64 167 79 167 9 0 29 -42 56 -116z
m116 66 c17 -22 33 -39 38 -40 4 0 7 21 7 46 0 44 1 45 28 42 l27 -3 3 -119
c3 -147 -4 -159 -58 -96 l-39 45 -1 -42 c0 -41 -1 -43 -30 -43 l-30 0 0 130
c0 143 3 148 55 80z m285 -230 c0 -5 -4 -10 -10 -10 -5 0 -10 5 -10 10 0 6 5
10 10 10 6 0 10 -4 10 -10z m-347 -43 c-10 -17 -109 -59 -181 -78 -132 -33
-280 -19 -421 41 -100 44 -91 45 269 45 186 0 336 -3 333 -8z"/>
<path d="M700 1320 c-28 -28 -25 -48 3 -22 29 27 57 28 90 2 30 -24 38 -25 30
-5 -7 19 -55 45 -83 45 -11 0 -29 -9 -40 -20z"/>
<path d="M922 1288 c7 -19 38 -22 38 -4 0 10 -9 16 -21 16 -12 0 -19 -5 -17
-12z"/>
<path d="M740 1269 c0 -14 -5 -19 -15 -16 -23 9 -28 -11 -11 -38 28 -42 86
-28 86 20 0 23 -28 55 -48 55 -7 0 -12 -9 -12 -21z"/>
<path d="M1020 1270 c0 -5 5 -10 10 -10 6 0 10 5 10 10 0 6 -4 10 -10 10 -5 0
-10 -4 -10 -10z"/>
<path d="M1120 1260 c0 -5 5 -10 10 -10 6 0 10 5 10 10 0 6 -4 10 -10 10 -5 0
-10 -4 -10 -10z"/>
<path d="M1166 1214 c-8 -22 -9 -21 19 -21 28 0 31 7 13 25 -16 16 -25 15 -32
-4z"/>
<path d="M1227 1204 c-8 -8 3 -34 14 -34 11 0 12 27 0 34 -4 3 -11 3 -14 0z"/>
<path d="M473 1105 c-3 -9 -3 -18 0 -21 9 -9 27 6 27 22 0 19 -19 18 -27 -1z"/>
<path d="M390 671 c0 -20 27 -48 37 -37 9 8 -14 56 -27 56 -5 0 -10 -8 -10
-19z"/>
<path d="M1291 1011 c-23 -15 -5 -41 28 -41 31 0 46 21 28 39 -13 13 -37 14
-56 2z"/>
<path d="M1391 996 c-19 -23 13 -42 45 -27 22 9 24 14 14 26 -16 19 -44 19
-59 1z"/>
<path d="M1480 926 c-18 -23 -8 -61 17 -64 30 -4 53 39 33 63 -16 19 -34 19
-50 1z"/>
<path d="M1260 894 c0 -8 11 -14 25 -14 14 0 25 4 25 9 0 5 -11 11 -25 13 -17
4 -25 1 -25 -8z"/>
<path d="M1200 790 c-12 -22 0 -55 22 -63 22 -7 48 13 48 36 0 45 -50 64 -70
27z"/>
<path d="M1375 786 c-24 -36 -13 -76 20 -76 29 0 48 29 43 68 -4 38 -41 42
-63 8z"/>
<path d="M1475 746 c-23 -35 -13 -79 18 -74 30 4 56 52 41 75 -17 28 -41 27
-59 -1z"/>
<path d="M1017 753 c-12 -12 -7 -50 8 -63 35 -29 74 20 45 56 -13 15 -42 19
-53 7z"/>
<path d="M1112 718 c-25 -25 -7 -68 29 -68 9 0 22 7 29 15 10 12 9 20 -4 40
-18 27 -35 32 -54 13z"/>
<path d="M1207 683 c-4 -3 -7 -19 -7 -34 0 -22 6 -30 24 -35 33 -8 46 2 46 36
0 33 -42 55 -63 33z"/>
<path d="M210 375 c0 -25 4 -35 13 -32 6 2 12 16 12 32 0 16 -6 30 -12 33 -9
2 -13 -8 -13 -33z"/>
<path d="M1490 376 c0 -39 10 -45 31 -20 9 11 10 20 3 32 -20 30 -34 25 -34
-12z"/>
</g>
</svg>
